HIERARCHY
ROOT hip
{
  OFFSET 0 0 0
  CHANNELS 6 Xposition Yposition Zposition Zrotation Yrotation Xrotation
  JOINT abdomen
  {
    OFFSET 0 20.6881 -0.73152
    CHANNELS 3 Zrotation Xrotation Yrotation
    JOINT chest
    {
      OFFSET 0 11.7043 -0.48768
      CHANNELS 3 Zrotation Xrotation Yrotation
      JOINT neck
      {
        OFFSET 0 22.1894 -2.19456
        CHANNELS 3 Zrotation Xrotation Yrotation
        JOINT head
        {
          OFFSET -0.24384 7.07133 1.2192
          CHANNELS 3 Zrotation Xrotation Yrotation
          JOINT leftEye
          {
            OFFSET 4.14528 8.04674 8.04672
            CHANNELS 3 Zrotation Xrotation Yrotation
            End Site
            {
              OFFSET 1 0 0
            }
          }
          JOINT rightEye
          {
            OFFSET -3.6576 8.04674 8.04672
            CHANNELS 3 Zrotation Xrotation Yrotation
            End Site
            {
              OFFSET 1 0 0
            }
          }
        }
      }
      JOINT rCollar
      {
        OFFSET -2.68224 19.2634 -4.8768
        CHANNELS 3 Zrotation Xrotation Yrotation
        JOINT rShldr
        {
          OFFSET -8.77824 -1.95073 1.46304
          CHANNELS 3 Zrotation Xrotation Yrotation
          JOINT rForeArm
          {
            OFFSET -28.1742 -1.7115 0.48768
            CHANNELS 3 Zrotation Xrotation Yrotation
            JOINT rHand
            {
              OFFSET -22.5879 0.773209 7.07136
              CHANNELS 3 Zrotation Xrotation Yrotation
              JOINT rThumb1
              {
                OFFSET -1.2192 -0.487915 3.41376
                CHANNELS 3 Zrotation Xrotation Yrotation
                JOINT rThumb2
                {
                  OFFSET -3.37035 -0.52449 3.41376
                  CHANNELS 3 Zrotation Xrotation Yrotation
                  End Site
                  {
                    OFFSET -1.78271 -1.18214 1.43049
                  }
                }
              }
              JOINT rIndex1
              {
                OFFSET -7.75947 0.938293 5.60832
                CHANNELS 3 Zrotation Xrotation Yrotation
                JOINT rIndex2
                {
                  OFFSET -2.54057 -0.884171 1.56538
                  CHANNELS 3 Zrotation Xrotation Yrotation
                  End Site
                  {
                    OFFSET -1.62519 -0.234802 1.16502
                  }
                }
              }
              JOINT rMid1
              {
                OFFSET -8.24714 1.18213 3.41376
                CHANNELS 3 Zrotation Xrotation Yrotation
                JOINT rMid2
                {
                  OFFSET -3.10165 -0.590103 1.0647
                  CHANNELS 3 Zrotation Xrotation Yrotation
                  End Site
                  {
                    OFFSET -2.48547 -0.328903 0.83742
                  }
                }
              }
              JOINT rRing1
              {
                OFFSET -8.82822 0.546677 1.51678
                CHANNELS 3 Zrotation Xrotation Yrotation
                JOINT rRing2
                {
                  OFFSET -2.60934 -0.819778 -0.0198488
                  CHANNELS 3 Zrotation Xrotation Yrotation
                  End Site
                  {
                    OFFSET -2.33842 -0.294052 0.168128
                  }
                }
              }
              JOINT rPinky1
              {
                OFFSET -8.27202 -0.0477905 -0.4584
                CHANNELS 3 Zrotation Xrotation Yrotation
                JOINT rPinky2
                {
                  OFFSET -1.82734 -0.647385 -0.700984
                  CHANNELS 3 Zrotation Xrotation Yrotation
                  End Site
                  {
                    OFFSET -1.69225 -0.51767 -0.607171
                  }
                }
              }
            }
          }
        }
      }
      JOINT lCollar
      {
        OFFSET 2.68224 19.2634 -4.8768
        CHANNELS 3 Zrotation Xrotation Yrotation
        JOINT lShldr
        {
          OFFSET 8.77824 -1.95073 1.46304
          CHANNELS 3 Zrotation Xrotation Yrotation
          JOINT lForeArm
          {
            OFFSET 28.1742 -1.7115 0.48768
            CHANNELS 3 Zrotation Xrotation Yrotation
            JOINT lHand
            {
              OFFSET 22.5879 0.773209 7.07136
              CHANNELS 3 Zrotation Xrotation Yrotation
              JOINT lThumb1
              {
                OFFSET 1.2192 -0.487915 3.41376
                CHANNELS 3 Zrotation Xrotation Yrotation
                JOINT lThumb2
                {
                  OFFSET 3.37035 -0.52449 3.41376
                  CHANNELS 3 Zrotation Xrotation Yrotation
                  End Site
                  {
                    OFFSET 1.78271 -1.18214 1.43049
                  }
                }
              }
              JOINT lIndex1
              {
                OFFSET 7.75947 0.938293 5.60832
                CHANNELS 3 Zrotation Xrotation Yrotation
                JOINT lIndex2
                {
                  OFFSET 2.54057 -0.884171 1.56538
                  CHANNELS 3 Zrotation Xrotation Yrotation
                  End Site
                  {
                    OFFSET 1.62519 -0.234802 1.16502
                  }
                }
              }
              JOINT lMid1
              {
                OFFSET 8.24714 1.18213 3.41376
                CHANNELS 3 Zrotation Xrotation Yrotation
                JOINT lMid2
                {
                  OFFSET 3.10165 -0.590103 1.0647
                  CHANNELS 3 Zrotation Xrotation Yrotation
                  End Site
                  {
                    OFFSET 2.48547 -0.328903 0.83742
                  }
                }
              }
              JOINT lRing1
              {
                OFFSET 8.82822 0.546677 1.51678
                CHANNELS 3 Zrotation Xrotation Yrotation
                JOINT lRing2
                {
                  OFFSET 2.60934 -0.819778 -0.0198488
                  CHANNELS 3 Zrotation Xrotation Yrotation
                  End Site
                  {
                    OFFSET 2.33842 -0.294052 0.168128
                  }
                }
              }
              JOINT lPinky1
              {
                OFFSET 8.27202 -0.0477905 -0.4584
                CHANNELS 3 Zrotation Xrotation Yrotation
                JOINT lPinky2
                {
                  OFFSET 1.82734 -0.647385 -0.700984
                  CHANNELS 3 Zrotation Xrotation Yrotation
                  End Site
                  {
                    OFFSET 1.69225 -0.51767 -0.607171
                  }
                }
              }
            }
          }
        }
      }
    }
  }
  JOINT rButtock
  {
    OFFSET -8.77824 4.35084 1.2192
    CHANNELS 3 Zrotation Xrotation Yrotation
    JOINT rThigh
    {
      OFFSET 0 -1.70687 -2.19456
      CHANNELS 3 Zrotation Xrotation Yrotation
      JOINT rShin
      {
        OFFSET 0 -36.8199 0.73152
        CHANNELS 3 Zrotation Xrotation Yrotation
        JOINT rFoot
        {
          OFFSET 0.73152 -45.1104 -5.12064
          CHANNELS 3 Zrotation Xrotation Yrotation
          End Site
          {
            OFFSET -1.1221 -3.69964 12.103
          }
        }
      }
    }
  }
  JOINT lButtock
  {
    OFFSET 8.77824 4.35084 1.2192
    CHANNELS 3 Zrotation Xrotation Yrotation
    JOINT lThigh
    {
      OFFSET 0 -1.70687 -2.19456
      CHANNELS 3 Zrotation Xrotation Yrotation
      JOINT lShin
      {
        OFFSET 0 -36.8199 0.73152
        CHANNELS 3 Zrotation Xrotation Yrotation
        JOINT lFoot
        {
          OFFSET -0.73152 -45.1104 -5.12064
          CHANNELS 3 Zrotation Xrotation Yrotation
          End Site
          {
            OFFSET 1.1221 -3.69964 12.103
          }
        }
      }
    }
  }
}
MOTION
Frames:	4
Frame Time:	0.00833333
-4.09658 84.2564 38.7607 0.0 0.0 0.0 -1.24151 -0.00398119 -0.0340789 -0.342494 -0.00249263 -0.0593272 4.70206e-14 7.95139e-16 4.09993e-16 1.41345e-13 9.54166e-15 1.18805e-15 -0.0 0.0 0.0 -0.0 0.0 0.0 2.40026e-14 -2.05773e-17 2.98177e-16 4.98281e-13 -4.16205e-16 6.95746e-15 8.52915e-12 -2.57168e-12 3.49861e-14 9.77742e-11 2.50503e-12 9.50986e-13 2.30605e-10 -1.4442e-13 2.12779e-12 3.98238e-10 -2.48083e-13 3.66559e-12 2.30611e-10 -1.42727e-13 2.11507e-12 7.73091 5.47488 0.417314 2.30605e-10 -1.44318e-13 2.13415e-12 2.90554 0.965183 0.102902 2.30614e-10 -1.44019e-13 2.12859e-12 10.2786 0.731801 0.0259123 2.30599e-10 -1.43523e-13 2.13415e-12 2.22167 -0.733487 -0.20892 2.39061e-14 -1.59183e-17 9.93923e-17 4.94342e-13 -7.20594e-16 4.77083e-15 8.55331e-12 2.54246e-12 -3.81667e-14 9.77579e-11 -2.62783e-12 1.0305e-12 2.30627e-10 -1.82041e-13 2.12779e-12 3.98296e-10 -3.08514e-13 3.66797e-12 2.3062e-10 -1.82087e-13 2.13097e-12 -7.73091 5.47488 -0.417314 2.30627e-10 -1.81789e-13 2.12461e-12 -2.90554 0.965183 -0.102902 2.30624e-10 -1.8159e-13 2.12859e-12 -10.2786 0.731801 -0.0259123 2.30631e-10 -1.80894e-13 2.11825e-12 -2.22167 -0.733487 0.20892 -2.03217e-16 0.0 -3.88251e-19 -0.453821 -1.92099 -0.00952743 -0.00915574 -2.07857 -0.0755534 -0.487473 3.99699 0.136656 2.03217e-16 0.0 3.88251e-19 -1.43726 -5.97115 0.129662 -0.00126432 5.25796 -0.0454146 0.507806 0.710743 -0.0722729
-5.28392 83.9763 37.359 -4.2001 -3.3757 2.4391 -0.376131 0.772003 0.499557 -0.255346 -0.827703 0.109829 0.122864 2.05242 -0.350782 0.870005 -1.83301 -0.662567 -0.0 0.0 0.0 -0.0 0.0 0.0 8.08255e-15 -2.85984e-14 4.62182e-14 22.9685 7.87168 -3.59068 -6.35489 -3.49443 9.17816 0.0306139 3.88281 0.541177 1.59617e-10 -5.16118e-11 9.52894e-11 2.76658e-10 -9.01536e-11 1.64803e-10 1.59622e-10 -5.16108e-11 9.52785e-11 7.73091 5.47488 0.417314 1.59614e-10 -5.16116e-11 9.52948e-11 2.90554 0.965183 0.102902 1.59626e-10 -5.16122e-11 9.52896e-11 10.2786 0.731801 0.0259123 1.5961e-10 -5.16112e-11 9.52955e-11 2.22167 -0.733487 -0.20892 7.96673e-15 -2.85978e-14 4.60672e-14 -22.8895 9.82365 2.54546 6.37817 -3.51391 -9.20319 -0.000102356 -0.224935 0.0316117 2.14425e-10 -5.48323e-11 9.32644e-11 3.69971e-10 -9.53339e-11 1.61465e-10 2.14419e-10 -5.48288e-11 9.32664e-11 -7.73091 5.47488 -0.417314 2.14426e-10 -5.48311e-11 9.32602e-11 -2.90554 0.965183 -0.102902 2.14423e-10 -5.48299e-11 9.32633e-11 -10.2786 0.731801 -0.0259123 2.14432e-10 -5.48279e-11 9.32549e-11 -2.22167 -0.733487 0.20892 -2.03217e-16 0.0 -3.88251e-19 -0.991535 -0.471266 1.38747 -0.00499998 -1.5449 -0.046619 -0.555333 -0.792191 -2.87963 2.03217e-16 0.0 3.88251e-19 1.89546 -6.75909 -1.30444 -0.0128094 9.94216 -0.170714 0.875639 -4.67395 3.58882
-5.27751 83.9747 37.3555 -4.167 -3.3868 2.4559 0.524313 1.59117 1.06395 -0.158214 -1.69997 0.288753 0.277807 4.21985 -0.72347 1.74491 -3.76688 -1.36532 -0.0 0.0 0.0 -0.0 0.0 0.0 -5.83317e-15 -5.98656e-14 9.76219e-14 48.3583 16.0897 -7.6161 -11.87 -6.88911 18.9874 -0.0174763 7.98411 1.12129 5.85894e-11 -7.50495e-11 1.79794e-10 1.03067e-10 -1.31742e-10 3.11336e-10 5.85944e-11 -7.50492e-11 1.79785e-10 7.73091 5.47488 0.417314 5.85846e-11 -7.50491e-11 1.79798e-10 2.90554 0.965183 0.102902 5.85984e-11 -7.50507e-11 1.79793e-10 10.2786 0.731801 0.0259123 5.85818e-11 -7.50493e-11 1.798e-10 2.22167 -0.733487 -0.20892 -5.97004e-15 -5.98693e-14 9.75256e-14 -48.0915 20.1421 5.497 11.9083 -6.92617 -19.0408 5.92081e-05 -0.460958 0.0647832 1.77237e-10 -1.3893e-10 1.81914e-10 3.05388e-10 -2.41274e-10 3.14968e-10 1.77233e-10 -1.38923e-10 1.81915e-10 -7.73091 5.47488 -0.417314 1.7724e-10 -1.38928e-10 1.81909e-10 -2.90554 0.965183 -0.102902 1.77236e-10 -1.38925e-10 1.81911e-10 -10.2786 0.731801 -0.0259123 1.77247e-10 -1.38922e-10 1.81904e-10 -2.22167 -0.733487 0.20892 -2.03217e-16 0.0 -3.88251e-19 -1.6353 1.05882 2.86424 -0.00119263 -0.980757 -0.0160494 -1.17643 -5.82457 -6.09907 2.03217e-16 0.0 3.88251e-19 5.37659 -7.5875 -2.82778 -0.00197019 14.8943 -0.308571 2.0217 -10.2981 7.55713
-5.27191 83.973 37.3519 -4.1388 -3.3953 2.4722 1.31124 2.32319 1.56798 -0.0664213 -2.47805 0.448526 0.444352 6.15633 -1.05777 2.48236 -5.49608 -1.99586 -0.0 0.0 0.0 -0.0 0.0 0.0 -2.37575e-14 -8.57541e-14 1.38058e-13 72.0666 23.2275 -11.6241 -15.8124 -9.40895 27.89 -0.132109 11.6442 1.65385 1.76402e-11 -1.54547e-10 2.81613e-10 3.34981e-11 -2.69965e-10 4.87078e-10 1.76447e-11 -1.54547e-10 2.81605e-10 7.73091 5.47488 0.417314 1.76335e-11 -1.54546e-10 2.81616e-10 2.90554 0.965183 0.102902 1.76492e-11 -1.54549e-10 2.81612e-10 10.2786 0.731801 0.0259123 1.7632e-11 -1.54547e-10 2.81618e-10 2.22167 -0.733487 -0.20892 -2.39119e-14 -8.57615e-14 1.38003e-13 -71.6019 29.2207 8.62929 15.8556 -9.45548 -27.9698 0.000437592 -0.674804 0.0948409 1.82021e-10 -1.64133e-10 2.75538e-10 3.13321e-10 -2.85385e-10 4.77061e-10 1.82018e-10 -1.64122e-10 2.75537e-10 -7.73091 5.47488 -0.417314 1.82025e-10 -1.6413e-10 2.75531e-10 -2.90554 0.965183 -0.102902 1.8202e-10 -1.64126e-10 2.75533e-10 -10.2786 0.731801 -0.0259123 1.82033e-10 -1.64122e-10 2.75528e-10 -2.22167 -0.733487 0.20892 -2.03217e-16 0.0 -3.88251e-19 -2.27897 2.42129 4.18506 0.00169487 -0.477549 0.0112017 -2.21474 -10.247 -9.05635 2.03217e-16 0.0 3.88251e-19 8.44158 -8.31818 -4.18818 0.0290679 19.3102 -0.438685 3.72386 -15.1862 11.2737
